<?xml version="1.0" encoding="iso-8859-1"?>
<!-- Uploaded to: SVG Repo, www.svgrepo.com, Generator: SVG Repo Mixer Tools -->
<svg height="800px" width="800px" version="1.1" id="Layer_1" xmlns="http://www.w3.org/2000/svg" xmlns:xlink="http://www.w3.org/1999/xlink" 
	 viewBox="0 0 503.212 503.212" xml:space="preserve">
<g transform="translate(1 1)">
	<g>
		<path style="fill:#FFDD09;" d="M191.403,261.102L191.403,261.102c-5.036,32.734-30.216,60.433-59.593,75.541l-31.895,62.951
			l58.754-8.393l25.18,50.361l67.148-151.082C226.656,290.479,204.833,278.728,191.403,261.102"/>
		<path style="fill:#FFDD09;" d="M310.59,261.102L310.59,261.102c5.036,32.734,30.216,60.433,59.593,75.541l31.895,62.951
			l-58.754-8.393l-25.18,50.361l-67.148-151.082C275.338,290.479,297.161,278.728,310.59,261.102"/>
		<path style="fill:#FFDD09;" d="M326.538,214.938c0,41.967-33.574,75.541-75.541,75.541s-75.541-33.574-75.541-75.541
			s33.574-75.541,75.541-75.541S326.538,172.971,326.538,214.938"/>
	</g>
	<g>
		<path style="fill:#FD9808;" d="M250.997,139.397c-8.393,0-16.787,1.679-24.341,4.197c41.128,0,74.702,33.574,74.702,75.541
			c0,32.734-20.984,61.272-51.2,71.344c0,0,0,0,0.839,0c41.967,0,75.541-33.574,75.541-75.541S292.964,139.397,250.997,139.397"/>
		<polygon style="fill:#FD9808;" points="343.325,329.089 376.898,395.397 402.079,403.791 370.184,340.84 		"/>
	</g>
	<polygon style="fill:#FFDD09;" points="158.669,324.053 125.095,390.361 99.915,398.754 131.81,335.804 	"/>
	<g>
		<path style="fill:#FFDD09;" d="M175.456,214.938c0-20.984,8.393-40.289,22.662-53.718
			C178.813,136.879,127.613,59.659,78.931,60.499C42.84,61.338,25.213,79.804,15.98,96.591c-7.554,13.43-9.233,58.754-8.393,73.862
			c1.679,24.341-2.518,130.938,30.216,164.511c41.128,41.128,141.849-3.357,153.6-73.862
			C181.331,248.512,175.456,232.564,175.456,214.938"/>
		<path style="fill:#FFDD09;" d="M326.538,214.938c0-20.984-8.393-40.289-22.662-53.718
			C323.18,136.879,374.38,59.659,423.062,60.499c35.252,0.839,53.718,19.305,62.111,36.092c7.554,13.43,9.233,58.754,8.393,73.862
			c-1.679,24.341,2.518,130.938-30.216,164.511c-41.128,41.128-141.849-3.357-153.6-73.862
			C320.662,248.512,326.538,232.564,326.538,214.938"/>
	</g>
	<path style="fill:#FD9808;" d="M487.692,91.554c-9.233-16.787-26.859-35.252-62.112-36.092c-4.197,0-7.554,0.839-11.751,1.679
		c26.859,4.197,41.128,20.144,48.682,34.413c7.554,13.43,9.233,58.754,8.393,73.862c-1.679,24.341,2.518,130.938-30.216,164.511
		c-8.393,8.393-18.466,12.59-30.216,15.108c20.984,3.357,41.967-0.839,55.397-15.108c32.734-32.734,28.538-140.17,30.216-164.511
		C496.925,150.309,495.246,104.984,487.692,91.554"/>
	<path style="fill:#FFDD09;" d="M14.302,91.554c9.233-16.787,26.859-35.252,62.111-36.092c4.197,0,7.554,0.839,11.751,1.679
		c-26.02,4.197-41.128,20.144-48.682,34.413c-7.554,13.43-9.233,58.754-8.393,73.862c2.518,24.341-2.518,130.938,30.216,163.672
		c8.393,8.393,18.466,12.59,30.216,15.108c-20.984,3.357-41.967-0.839-55.397-15.108C3.39,296.354,8.426,189.758,5.908,165.417
		C5.069,150.309,6.748,104.984,14.302,91.554"/>
	<path d="M250.997,298.872c-46.164,0-83.934-37.77-83.934-83.934s37.77-83.934,83.934-83.934s83.934,37.77,83.934,83.934
		S297.161,298.872,250.997,298.872z M250.997,147.791c-36.931,0-67.148,30.216-67.148,67.148s30.216,67.148,67.148,67.148
		s67.148-30.216,67.148-67.148S287.928,147.791,250.997,147.791z"/>
	<path d="M175.456,223.332c-1.679,0-3.357-0.839-5.036-1.679l-58.754-41.967c-3.357-2.518-5.036-7.554-1.679-11.751
		c2.518-4.197,7.554-5.036,11.751-1.679l58.754,41.967c3.357,2.518,5.036,7.554,1.679,11.751
		C180.492,222.492,177.974,223.332,175.456,223.332z"/>
	<path d="M116.702,265.299c-2.518,0-5.036-0.839-6.715-3.357c-2.518-3.357-1.679-9.233,1.679-11.751l58.754-41.967
		c3.357-2.518,9.233-1.679,11.751,1.679c2.518,3.357,1.679,9.233-1.679,11.751l-58.754,41.967
		C120.059,264.459,118.38,265.299,116.702,265.299z"/>
	<path d="M80.61,358.466c-19.305,0-36.092-5.875-48.682-18.466C2.551,310.623,0.872,231.725,0.033,189.758
		c0-8.393,0-15.108-0.839-19.305c-0.839-13.43,0.839-62.111,9.233-78.898c10.072-17.626,29.377-39.449,69.666-40.289
		c47.003-0.839,92.328,59.593,116.669,91.489c3.357,5.036,6.715,9.233,9.233,11.751c2.518,3.357,2.518,8.393-0.839,10.911
		c-12.59,14.269-19.305,31.056-19.305,49.521c0,15.108,5.036,29.377,14.269,41.128c1.679,1.679,1.679,4.197,1.679,6.715
		c-7.554,45.325-48.682,78.059-85.613,89.81C102.433,356.787,91.521,358.466,80.61,358.466z M79.771,68.892
		C78.931,68.892,78.931,68.892,79.771,68.892c-26.859,0.839-45.325,10.911-56.236,31.895c-5.875,10.911-8.393,53.718-7.554,68.826
		c0,4.197,0.839,11.751,0.839,20.144c0.839,36.931,2.518,114.151,26.859,138.492c14.269,14.269,38.61,16.787,65.469,8.393
		c30.216-10.072,65.469-36.931,73.023-73.862c-10.072-14.269-15.108-30.216-15.108-47.843c0-20.144,6.715-38.61,20.144-53.718
		c-1.679-1.679-3.357-4.197-5.036-6.715C159.508,124.289,117.541,68.892,79.771,68.892z"/>
	<path d="M183.849,449.954c-3.357,0-5.875-1.679-7.554-5.036l-22.662-45.325l-52.879,8.393c-3.357,0.839-5.875-0.839-8.393-3.357
		c-1.679-2.518-1.679-5.875-0.839-8.393l31.895-62.951c0.839-1.679,1.679-2.518,3.357-3.357
		c30.216-15.948,51.2-41.967,55.397-69.666c0.839-3.357,3.357-5.875,5.875-6.715c3.357-0.839,6.715,0,8.393,3.357
		c12.59,16.787,31.895,26.02,52.879,26.02c2.518,0,5.875,1.679,6.715,4.197c0.839,2.518,1.679,5.036,0.839,8.393l-67.148,151.082
		C190.564,448.276,187.207,449.954,183.849,449.954L183.849,449.954z M158.669,382.807c3.357,0,5.875,1.679,7.554,5.036
		l17.626,34.413l55.397-124.223c-15.948-2.518-31.056-9.233-42.807-20.144c-9.233,26.02-29.377,49.521-57.915,64.629l-23.502,46.164
		l42.807-5.875C157.83,382.807,158.669,382.807,158.669,382.807z"/>
	<path d="M326.538,223.332c-2.518,0-5.036-0.839-6.715-3.357c-2.518-3.357-1.679-9.233,1.679-11.751l58.754-41.967
		c3.357-2.518,9.233-1.679,11.751,1.679c2.518,3.357,1.679,9.233-1.679,11.751l-58.754,41.967
		C329.895,222.492,328.217,223.332,326.538,223.332z"/>
	<path d="M385.292,265.299c-1.679,0-3.357-0.839-5.036-1.679l-58.754-41.967c-3.357-2.518-5.036-7.554-1.679-11.751
		c2.518-3.357,7.554-5.036,11.751-1.679l58.754,41.967c3.357,2.518,5.036,7.554,1.679,11.751
		C390.328,264.459,387.81,265.299,385.292,265.299z"/>
	<path d="M421.384,358.466c-10.911,0-21.823-1.679-33.574-5.875c-36.931-11.751-78.059-44.485-85.613-90.649
		c0-2.518,0-4.197,1.679-6.715c9.233-11.751,14.269-26.02,14.269-41.128c0-17.626-6.715-35.252-20.144-47.843
		c-3.357-3.357-3.357-7.554-0.839-10.911c2.518-3.357,5.875-7.554,9.233-11.751c24.341-32.734,69.666-92.328,116.669-91.489
		c39.449,0.839,59.593,22.662,69.666,40.289c9.233,15.948,10.072,65.469,9.233,78.898c0,4.197-0.839,10.911-0.839,19.305
		c-0.839,41.967-2.518,120.866-31.895,150.243C458.315,352.591,440.689,358.466,421.384,358.466z M319.823,262.781
		c7.554,36.931,42.807,63.79,73.023,73.862c26.859,8.393,51.2,5.875,65.469-8.393c24.341-24.341,26.02-101.561,26.859-138.492
		c0-8.393,0-15.948,0.839-20.144c1.679-15.108-1.679-57.915-7.554-68.826c-10.911-20.144-29.377-31.056-55.397-31.895h-0.839
		c-37.771,0-79.738,55.397-102.4,84.774c-1.679,2.518-3.357,5.036-5.036,6.715c12.59,15.108,20.144,34.413,20.144,53.718
		C334.931,232.564,329.895,248.512,319.823,262.781z"/>
	<path d="M318.144,449.954L318.144,449.954c-3.357,0-6.715-1.679-7.554-5.036l-67.148-151.082c-0.839-2.518-0.839-5.875,0.839-8.393
		c1.679-2.518,4.197-3.357,6.715-3.357c20.984,0,40.288-9.233,52.879-26.02c1.679-2.518,5.036-4.197,8.393-3.357
		c3.357,0.839,5.875,3.357,5.875,6.715c4.197,27.698,25.18,53.718,55.397,69.666c1.679,0.839,2.518,2.518,3.357,3.357l31.895,62.951
		c1.679,2.518,0.839,5.875-0.839,8.393c-1.679,2.518-5.036,4.197-8.393,3.357l-52.879-7.554l-22.662,45.325
		C324.02,448.276,321.502,449.954,318.144,449.954z M263.587,298.033l55.397,124.223l17.626-34.413
		c1.679-3.357,5.036-5.036,8.393-4.197l42.807,5.875l-23.502-46.164c-28.538-15.108-48.682-38.61-57.915-64.63
		C294.643,288.8,279.535,295.515,263.587,298.033z"/>
</g>
</svg>